<?xml version="1.0" standalone="no"?>
<!DOCTYPE svg PUBLIC "-//W3C//DTD SVG 20010904//EN"
 "http://www.w3.org/TR/2001/REC-SVG-20010904/DTD/svg10.dtd">
<svg version="1.0" xmlns="http://www.w3.org/2000/svg"
 width="616.000000pt" height="616.000000pt" viewBox="0 0 616.000000 616.000000"
 preserveAspectRatio="xMidYMid meet">
<metadata>
Created by potrace 1.14, written by Peter Selinger 2001-2017
</metadata>
<g transform="translate(0.000000,616.000000) scale(0.100000,-0.100000)"
fill="#000000" stroke="none">
<path d="M2968 6124 c-25 -13 -48 -31 -52 -40 -7 -19 13 -54 53 -93 25 -24 27
-33 26 -95 -1 -83 -7 -78 142 -102 l32 -6 0 74 c0 86 5 101 51 157 19 23 35
47 35 54 1 18 -54 56 -98 68 -59 16 -139 9 -189 -17z"/>
<path d="M3050 5710 l-25 -19 29 -24 28 -25 -31 -18 c-27 -16 -29 -20 -17 -34
11 -11 14 -44 13 -133 -2 -108 0 -119 18 -130 25 -16 33 -15 71 8 l30 18 -21
21 c-19 19 -21 32 -20 134 1 62 -3 115 -7 118 -15 10 -8 24 22 42 l30 19 -39
21 c-47 27 -49 27 -81 2z"/>
<path d="M2802 5606 l-54 -40 6 -56 c3 -30 8 -82 12 -115 3 -33 9 -63 12 -66
4 -4 31 -12 60 -18 48 -10 55 -9 82 11 34 25 29 32 -36 49 -22 6 -41 16 -41
22 -1 7 -4 53 -8 104 l-8 92 32 -12 c34 -13 39 -22 43 -84 1 -24 4 -43 7 -43
2 0 19 11 36 25 31 23 33 27 29 82 -3 31 -6 59 -9 61 -2 3 -21 7 -41 9 -20 2
-44 7 -53 12 -11 6 -32 -4 -69 -33z"/>
<path d="M3300 5641 c0 -5 -13 -14 -30 -21 -40 -16 -48 -45 -19 -69 l23 -18
-25 -14 c-13 -7 -27 -13 -31 -14 -15 0 -20 -16 -25 -77 l-5 -64 59 -32 c44
-23 63 -28 71 -20 8 8 15 8 27 -2 13 -11 22 -10 56 6 35 15 39 20 25 29 -8 7
-14 21 -11 33 2 11 7 56 10 99 4 43 9 86 11 96 2 13 -7 22 -34 33 -20 8 -49
21 -64 29 -30 17 -38 18 -38 6z m35 -67 c17 -12 18 -16 5 -24 -18 -11 -50 5
-50 25 0 19 19 19 45 -1z m9 -126 c-3 -46 -7 -84 -8 -85 0 -1 -16 5 -34 13
-32 13 -33 15 -31 66 3 71 7 80 29 68 13 -7 20 -6 24 5 3 8 10 15 16 15 8 0 9
-26 4 -82z"/>
<path d="M3842 5597 l-33 -10 26 -27 27 -28 -37 -12 c-31 -10 -36 -15 -31 -35
4 -14 -8 -69 -30 -134 -32 -102 -34 -112 -19 -127 12 -12 26 -15 59 -10 l44 7
-14 28 c-10 21 -12 36 -5 53 23 54 61 190 59 205 -2 11 8 19 31 25 l34 9 -34
35 c-18 19 -35 34 -38 33 -4 -1 -21 -6 -39 -12z"/>
<path d="M2501 5557 l-43 -43 13 -60 c7 -32 13 -61 14 -64 1 -3 5 -24 9 -47 8
-45 5 -43 99 -59 36 -6 41 -3 79 36 42 44 42 45 23 130 -3 14 -7 36 -10 50
-18 93 -11 86 -100 95 -36 4 -44 0 -84 -38z m97 -41 c7 -9 42 -157 42 -177 0
-4 -11 -4 -25 -1 -30 5 -43 26 -51 79 -8 53 -12 75 -19 99 -6 19 -3 21 19 17
14 -3 29 -10 34 -17z"/>
<path d="M3619 5589 c-8 -5 -33 -14 -56 -20 -43 -11 -49 -20 -59 -76 -3 -16
-9 -44 -15 -63 -5 -19 -12 -53 -15 -76 -6 -40 -5 -42 41 -68 37 -22 54 -27 81
-21 45 8 43 26 -5 58 -44 29 -43 21 -14 145 9 39 22 72 28 72 24 0 47 -38 41
-67 -18 -83 -18 -85 6 -78 48 14 64 33 76 85 12 53 10 70 -11 70 -7 0 -28 11
-48 24 -25 17 -40 22 -50 15z"/>
<path d="M4098 5553 c-21 -3 -28 -10 -28 -28 0 -12 -7 -26 -16 -29 -8 -3 -13
-10 -10 -14 6 -10 97 -4 109 7 11 11 -4 71 -17 70 -6 -1 -23 -4 -38 -6z"/>
<path d="M2275 5512 c-23 -2 -38 -14 -63 -52 -31 -45 -32 -51 -23 -87 15 -52
23 -63 54 -68 19 -4 31 2 47 22 31 40 49 37 70 -10 10 -23 16 -45 14 -49 -3
-4 -24 -8 -47 -8 -37 0 -45 -4 -60 -29 -21 -35 -17 -37 49 -37 49 1 53 3 89
50 32 42 36 53 30 83 -11 58 -26 82 -57 88 -23 6 -34 2 -53 -19 -13 -14 -34
-26 -46 -26 -12 0 -19 3 -16 7 4 3 3 11 -2 17 -4 6 -11 23 -15 38 -6 26 -5 26
40 23 38 -2 49 1 70 23 13 15 24 30 24 34 0 6 -42 6 -105 0z"/>
<path d="M3986 5440 c-26 -4 -34 -15 -67 -95 -21 -49 -38 -96 -39 -102 0 -15
88 -105 98 -99 4 2 23 7 43 10 59 9 62 13 107 118 l42 101 -32 38 c-30 34 -37
38 -78 36 -25 0 -58 -4 -74 -7z m88 -94 c-4 -12 -17 -45 -30 -75 -13 -29 -24
-60 -24 -67 0 -19 -10 -17 -36 7 -16 15 -20 26 -14 38 5 9 23 49 41 88 l32 73
19 -22 c12 -14 16 -29 12 -42z"/>
<path d="M2079 5416 c-2 -2 -26 -7 -54 -10 -52 -7 -65 -18 -100 -82 -17 -32
-17 -35 2 -81 17 -43 23 -48 54 -51 29 -2 37 2 51 28 23 41 42 38 72 -12 l26
-43 -52 -10 c-45 -9 -53 -14 -65 -42 l-13 -32 58 5 c65 7 61 4 96 67 31 58 32
61 3 116 -19 38 -27 45 -55 47 -23 2 -35 -2 -40 -14 -9 -24 -28 -42 -46 -42
-16 0 -63 79 -49 81 5 0 25 2 45 4 46 4 54 9 73 46 13 24 9 39 -6 25z"/>
<path d="M1770 5334 c0 -46 -20 -66 -66 -66 -37 -1 -52 1 -134 16 -19 3 -47 8
-62 10 -15 3 -32 7 -38 11 -5 3 -10 -2 -10 -12 0 -10 -9 -47 -20 -81 -20 -65
-26 -122 -12 -122 4 0 7 18 8 41 1 22 6 45 12 51 20 20 162 18 162 -2 0 -4 -9
-17 -20 -30 -32 -37 -63 -110 -65 -154 -3 -64 24 -113 85 -156 30 -21 46 -25
112 -25 93 0 108 11 132 97 l16 57 63 0 c34 0 74 4 89 10 14 5 29 7 32 4 3 -4
6 -1 6 5 0 7 -8 12 -17 12 -73 0 -148 58 -210 162 -23 39 -34 70 -38 118 -7
68 -25 108 -25 54z m20 -181 c0 -66 26 -132 60 -156 l23 -16 -31 -30 c-21 -21
-41 -31 -64 -32 -121 -4 -196 42 -200 123 -3 58 1 73 30 106 23 28 35 34 80
37 29 3 61 9 70 15 29 16 32 12 32 -47z"/>
<path d="M4682 5294 c-53 -16 -104 -19 -156 -9 -27 5 -37 4 -32 -3 6 -10 -38
-80 -145 -229 -44 -62 -44 -62 -95 -63 -27 0 -59 -6 -70 -14 -18 -14 -18 -15
8 -25 14 -5 52 -42 83 -82 84 -105 178 -138 258 -92 62 36 88 143 52 213 -20
38 -26 38 -15 0 16 -54 -8 -121 -56 -159 -51 -40 -84 -23 -151 79 -47 72 -47
69 -8 65 43 -4 45 -2 130 121 48 68 68 106 68 129 1 34 -1 34 102 26 14 -1 30
-19 50 -55 26 -48 31 -53 54 -47 14 4 43 7 64 6 20 0 37 2 37 5 0 3 -15 14
-34 24 -25 13 -41 33 -58 72 -25 59 -24 58 -86 38z"/>
<path d="M3110 5271 l-25 -8 25 -5 c14 -3 -2 -5 -36 -5 -33 0 -65 -3 -72 -7
-9 -5 -12 -72 -12 -251 l0 -243 -254 2 c-240 2 -256 4 -290 24 -25 15 -46 20
-62 16 -27 -7 -26 -5 -29 -106 -1 -60 2 -77 18 -95 20 -22 20 -22 46 -4 14 10
42 23 62 29 40 11 468 11 485 0 7 -5 11 -129 13 -394 l2 -386 -47 58 c-45 55
-87 99 -130 134 -63 51 -216 124 -281 135 -18 3 -61 11 -96 19 -61 12 -390 14
-444 2 -12 -2 -48 -7 -80 -11 -32 -3 -65 -8 -73 -10 -8 -3 -31 -7 -50 -9 -51
-6 -130 -27 -131 -35 0 -3 -1 -34 -3 -68 -1 -35 -5 -64 -7 -66 -2 -2 -41 -11
-87 -20 -114 -22 -157 -44 -158 -82 -1 -16 -5 -52 -9 -80 -4 -27 -8 -68 -10
-90 -3 -36 -8 -79 -20 -185 -2 -19 -7 -60 -10 -90 -3 -30 -8 -68 -11 -85 -8
-43 -12 -71 -19 -145 -4 -36 -8 -72 -10 -80 -3 -8 -7 -33 -10 -55 -4 -22 -8
-48 -11 -57 -3 -10 -7 -45 -9 -78 -2 -33 -7 -65 -10 -69 -3 -5 -8 -29 -11 -52
-3 -24 -7 -53 -9 -64 -1 -11 -10 -56 -18 -100 -9 -44 -23 -120 -32 -170 -9
-49 -23 -126 -31 -170 -9 -44 -18 -91 -20 -104 -3 -13 -11 -51 -19 -84 l-14
-59 36 5 c29 5 36 3 40 -13 3 -11 12 -20 20 -20 12 0 13 -3 5 -13 -13 -15 -5
-57 11 -57 8 0 8 -3 0 -11 -9 -9 -1 -22 30 -53 23 -23 61 -62 83 -88 23 -26
44 -45 46 -43 2 2 15 6 28 9 14 3 36 8 50 11 82 19 133 27 200 31 121 7 399 7
475 0 39 -3 102 -9 140 -12 127 -9 221 -22 320 -41 164 -31 184 -38 186 -59 1
-8 2 -20 3 -26 2 -20 27 -20 119 1 48 10 89 16 90 12 5 -8 8 -154 10 -456 1
-137 5 -255 9 -261 7 -10 32 -17 114 -30 31 -5 32 -5 35 40 2 25 4 194 4 376
l0 330 25 0 c14 0 56 -7 95 -15 93 -20 92 -20 105 19 9 27 18 35 43 40 18 3
42 8 55 11 12 3 31 7 43 10 11 2 28 6 37 9 9 3 40 8 68 11 28 3 59 7 70 9 10
2 53 7 94 11 41 3 91 8 110 10 128 13 206 17 370 17 217 -1 281 -5 381 -27 41
-9 85 -18 98 -21 14 -3 28 -7 31 -9 4 -3 28 21 53 53 25 31 60 72 76 91 17 18
28 37 25 42 -3 5 -1 9 4 9 15 0 22 42 10 57 -8 10 -6 13 6 13 9 0 16 7 16 15
0 15 5 17 50 19 14 1 24 6 23 12 -4 20 -11 57 -33 164 -12 58 -23 119 -25 135
-3 17 -7 41 -11 55 -3 14 -7 34 -9 45 -2 11 -5 31 -8 45 -19 99 -37 200 -42
230 -2 19 -7 49 -10 65 -3 17 -10 53 -15 80 -5 28 -11 76 -14 108 -3 32 -8 62
-10 66 -3 4 -7 29 -11 57 -3 27 -8 69 -11 94 -3 25 -7 61 -10 80 -11 70 -14
86 -19 140 -10 94 -15 143 -21 195 -4 28 -8 61 -9 75 -1 14 -6 54 -10 90 -5
36 -8 71 -6 78 1 8 -3 20 -9 27 -15 18 -120 52 -187 61 -29 3 -54 9 -54 13 -1
3 -2 35 -3 70 -1 70 -6 75 -85 87 -20 3 -43 7 -51 9 -20 6 -65 13 -187 28
-143 19 -395 15 -508 -8 -191 -38 -360 -144 -468 -293 -17 -23 -33 -38 -37
-32 -8 13 -3 760 5 769 10 9 456 9 490 0 17 -5 42 -18 56 -28 24 -18 27 -18
46 -2 22 16 26 41 24 142 -1 37 -5 48 -24 58 -20 11 -30 9 -67 -10 -41 -21
-56 -23 -285 -25 -133 -1 -247 1 -252 5 -5 3 -9 110 -9 261 1 248 0 255 -19
257 -11 1 -31 -2 -45 -6z"/>
<path d="M4702 4903 c-99 -104 -120 -131 -116 -150 6 -21 19 -29 63 -38 17 -3
21 1 21 22 0 19 22 48 79 107 171 174 167 170 140 177 -56 16 -64 11 -187
-118z"/>
<path d="M4926 4903 l7 -36 -37 7 c-31 6 -36 4 -36 -11 0 -10 -40 -57 -90
-103 -71 -67 -88 -89 -84 -105 6 -19 28 -37 49 -41 6 -1 16 -3 24 -5 9 -3 15
5 16 22 1 18 28 51 90 112 49 48 84 90 81 96 -9 14 19 14 44 1 26 -14 32 1 19
41 -15 44 -18 46 -57 52 -33 5 -33 5 -26 -30z"/>
<path d="M1226 4836 c-27 -18 -51 -41 -53 -52 -6 -32 -8 -113 -3 -116 3 -2 19
-15 36 -31 27 -25 33 -26 62 -16 27 9 32 16 32 44 0 48 29 55 75 18 l36 -28
-23 -15 c-44 -30 -57 -45 -62 -72 -3 -15 -1 -30 3 -32 14 -9 104 49 107 69 15
101 13 111 -28 150 -36 34 -43 36 -72 28 -23 -6 -32 -16 -36 -37 -3 -16 -14
-35 -26 -42 -18 -13 -23 -11 -53 20 l-33 34 36 12 c40 13 66 43 66 77 0 29 -5
28 -64 -11z"/>
<path d="M5019 4772 c-19 -15 -36 -29 -39 -32 -3 -3 -47 -39 -98 -79 -69 -55
-91 -78 -87 -90 4 -9 8 -20 9 -26 16 -64 25 -72 101 -91 6 -2 19 -6 30 -9 14
-4 38 8 80 40 33 26 76 59 97 74 27 20 34 31 27 42 -5 8 -14 33 -20 57 -9 33
-16 42 -33 42 -18 1 -17 5 16 35 40 37 40 38 -13 53 -32 8 -40 7 -70 -16z m29
-125 c2 -27 -4 -37 -30 -57 -38 -28 -42 -31 -88 -70 -30 -25 -36 -27 -43 -14
-21 38 -14 52 58 107 6 4 27 21 49 37 21 17 42 30 45 30 4 0 8 -15 9 -33z"/>
<path d="M1035 4608 c-22 -11 -41 -21 -42 -22 -3 -2 -16 -97 -17 -125 -1 -16
8 -28 29 -40 17 -9 57 -37 90 -62 l60 -47 50 29 c42 24 51 34 56 64 7 41 2 42
-50 15 -51 -25 -63 -12 -60 65 2 49 6 59 26 68 22 10 22 11 -27 44 -57 38 -62
39 -115 11z m49 -69 c28 -13 59 -69 50 -92 -4 -12 -18 -6 -65 29 -32 25 -59
48 -59 50 0 4 28 17 47 23 1 1 13 -4 27 -10z"/>
<path d="M5166 4502 c-7 -20 -15 -27 -116 -87 -41 -25 -83 -45 -92 -45 -13 0
-16 -7 -13 -31 4 -36 8 -40 48 -57 16 -7 27 -8 28 -2 1 6 2 15 3 22 1 10 171
118 187 118 4 0 10 -15 13 -33 5 -28 13 -36 42 -45 33 -10 34 -9 28 10 -3 11
-7 31 -9 44 -3 28 -22 54 -41 54 -7 0 -11 8 -9 20 2 12 -5 26 -18 35 -28 20
-44 19 -51 -3z"/>
<path d="M862 4346 l-42 -44 7 -61 c6 -60 7 -63 51 -88 42 -25 46 -25 71 -10
21 13 25 22 23 50 -5 51 17 63 68 37 43 -22 44 -31 3 -63 -17 -14 -22 -27 -21
-58 1 -21 3 -39 5 -39 3 0 25 16 49 36 l45 37 -6 56 c-9 81 -10 84 -61 110
-43 23 -48 24 -73 10 -19 -11 -26 -23 -26 -47 0 -17 -8 -39 -17 -48 -14 -14
-19 -14 -52 8 -20 12 -36 25 -36 28 0 3 16 15 35 28 30 19 35 27 35 62 0 22
-4 40 -8 40 -4 0 -27 -20 -50 -44z"/>
<path d="M5185 4246 l-100 -51 2 -50 c0 -27 2 -55 2 -60 1 -6 15 -19 31 -28
l30 -18 1 25 c3 51 4 61 12 74 10 14 47 16 47 2 0 -5 5 -10 11 -10 6 0 24 -10
41 -21 23 -17 28 -26 23 -46 l-6 -25 60 32 c48 26 60 37 63 61 9 60 -2 87 -51
122 -25 18 -50 35 -56 38 -5 3 -55 -18 -110 -45z m156 -54 c-10 -38 -63 -64
-102 -50 -17 6 -29 14 -27 19 4 11 121 68 130 63 3 -2 3 -16 -1 -32z"/>
<path d="M736 4079 c-15 -21 -35 -44 -45 -51 -13 -8 -16 -16 -11 -27 5 -9 11
-28 15 -43 8 -41 39 -54 64 -27 l19 21 7 -45 c7 -44 8 -45 69 -69 l63 -25 44
48 c24 27 43 56 41 65 -2 9 4 24 12 33 22 24 14 77 -11 73 -10 -1 -52 11 -93
29 -41 17 -91 37 -112 44 l-36 14 -26 -40z m41 -82 c-16 -25 -47 -35 -47 -16
0 16 40 50 52 43 5 -3 3 -15 -5 -27z m177 -51 c-3 -6 -16 -19 -29 -29 -24 -17
-26 -17 -67 4 -24 12 -44 21 -45 20 -2 0 -8 -1 -14 -1 -8 0 -8 5 1 15 7 8 10
25 6 39 l-6 24 79 -30 c47 -18 78 -35 75 -42z"/>
<path d="M5386 4013 c-4 -5 -11 -8 -14 -9 -27 -3 -61 -18 -64 -27 -10 -28 -2
-61 17 -71 11 -6 23 -15 26 -20 11 -14 -3 -46 -20 -46 -9 0 -25 -7 -35 -15
-27 -20 -36 -10 -36 37 0 29 -6 46 -22 59 -25 22 -38 24 -39 7 -1 -7 -2 -34
-4 -59 l-3 -45 58 -37 59 -36 48 16 c58 19 52 14 59 50 5 26 1 35 -20 54 -34
29 -33 54 2 67 54 22 56 20 57 -30 0 -36 6 -51 24 -67 35 -30 40 -26 36 27 -2
26 -4 55 -4 64 -1 10 -25 33 -53 53 -56 37 -61 39 -72 28z"/>
<path d="M648 3812 c-49 -61 -61 -85 -50 -103 10 -15 8 -20 -9 -29 -16 -9 -19
-18 -16 -47 7 -48 18 -57 51 -40 24 13 36 12 124 -15 53 -16 108 -31 122 -34
14 -2 40 -10 58 -15 41 -14 47 -8 36 33 -8 27 -18 36 -52 48 -23 8 -42 17 -42
21 0 3 16 20 35 38 28 25 35 38 31 59 -2 15 -5 30 -5 33 -1 3 -13 6 -28 6 -16
0 -37 3 -49 6 -25 6 -164 46 -181 52 -6 2 -17 -4 -25 -13z m202 -117 c8 -2 16
-4 18 -4 1 -1 -5 -15 -13 -32 -10 -18 -22 -29 -30 -25 -8 3 -33 10 -57 17 -24
7 -45 13 -48 14 -3 1 -20 6 -37 10 -39 9 -40 12 -12 41 l20 22 72 -20 c40 -10
79 -21 87 -23z"/>
<path d="M5628 3603 c-7 -16 -13 -30 -15 -32 -2 -3 -14 6 -28 19 -19 18 -27
20 -39 11 -12 -10 -102 -33 -186 -47 -66 -11 -70 -14 -70 -44 0 -18 10 -39 25
-54 l26 -26 11 25 c7 16 20 26 37 27 25 1 40 3 51 8 10 3 45 10 85 16 22 3 53
12 68 19 25 13 30 12 48 -6 22 -22 39 -25 40 -6 1 14 5 38 10 52 4 11 -34 65
-45 65 -4 0 -12 -12 -18 -27z"/>
<path d="M570 3495 c-6 -16 -18 -43 -26 -59 -13 -28 -13 -34 11 -83 15 -29 29
-55 33 -57 4 -2 30 -7 57 -10 47 -6 51 -5 66 21 15 24 15 29 2 49 -9 14 -12
32 -8 44 6 19 12 21 52 16 25 -3 48 -7 50 -10 3 -3 -4 -20 -15 -38 -18 -30
-19 -36 -7 -65 8 -18 18 -33 22 -33 4 0 20 22 34 48 l27 48 -29 53 c-36 69
-35 68 -94 76 -45 5 -53 3 -72 -18 -19 -23 -20 -27 -6 -56 14 -29 14 -33 -2
-51 -9 -10 -22 -17 -28 -15 -7 2 -25 6 -40 9 l-28 7 20 27 c28 41 31 75 7 108
-14 18 -15 18 -26 -11z"/>
<path d="M365 3270 c12 -20 7 -98 -10 -133 -17 -36 -17 -36 15 -82 30 -43 93
-100 170 -151 19 -13 49 -35 66 -49 l31 -25 0 45 c0 26 5 51 10 56 13 13 75
-17 144 -67 26 -19 51 -34 56 -34 10 0 92 161 99 193 3 18 -16 64 -37 91 -31
39 -68 76 -90 90 -27 17 -119 28 -119 13 0 -4 -4 -6 -9 -2 -11 6 -163 -47
-198 -70 -29 -20 -43 -12 -43 23 0 29 -21 66 -55 94 -22 19 -40 24 -30 8z
m459 -88 c46 -41 39 -111 -17 -188 -43 -57 -64 -66 -107 -45 -30 14 -35 21
-36 51 -1 51 -10 72 -47 108 l-32 32 3 -41 c5 -45 -25 -169 -40 -169 -12 0
-70 58 -93 92 -30 48 -15 70 77 117 129 65 247 82 292 43z"/>
<path d="M5271 3179 c-49 -98 -50 -101 -36 -135 17 -42 54 -91 97 -130 31 -27
38 -29 108 -28 57 1 90 8 140 28 36 15 81 34 101 41 36 13 36 13 37 -15 1 -38
25 -83 58 -109 30 -24 40 -22 26 6 -13 24 -7 85 13 123 15 30 15 33 -9 73 -28
48 -54 74 -151 147 -38 30 -72 56 -75 59 -3 3 -14 14 -25 23 -20 16 -20 15
-20 -37 0 -30 -3 -56 -7 -60 -6 -6 -107 40 -118 54 -8 10 -78 61 -84 61 -3 0
-28 -45 -55 -101z m455 -124 c10 -39 0 -50 -68 -83 -102 -50 -137 -62 -208
-68 -77 -8 -112 8 -128 56 -16 44 -5 84 40 146 44 62 66 70 116 45 38 -19 40
-23 32 -50 -9 -34 7 -72 48 -112 l27 -26 1 66 c0 42 8 82 20 109 l19 43 47
-51 c26 -28 51 -62 54 -75z"/>
<path d="M5327 2794 c-30 -50 -30 -59 9 -129 20 -34 32 -46 57 -50 69 -12 79
-10 98 15 17 22 18 29 7 57 -19 52 10 69 80 47 10 -3 8 -13 -9 -44 -21 -36
-21 -43 -9 -80 12 -35 15 -38 25 -22 7 9 20 38 30 64 l18 48 -27 54 c-27 56
-45 66 -116 66 -35 0 -56 -40 -38 -73 17 -30 18 -46 6 -54 -12 -7 -89 -6 -96
2 -3 3 3 23 13 45 15 33 16 44 5 70 -7 16 -15 30 -19 30 -3 0 -19 -21 -34 -46z"/>
<path d="M830 2656 c0 -8 -4 -17 -10 -21 -7 -5 -123 -32 -214 -50 -10 -3 -24
-9 -31 -15 -10 -9 -19 -6 -35 10 -26 26 -37 18 -45 -35 -5 -35 -2 -42 20 -58
29 -21 34 -20 40 13 7 34 13 36 40 10 23 -21 26 -22 42 -7 10 8 36 19 58 22
60 11 67 13 113 23 23 5 42 8 42 6 0 -3 9 0 20 6 28 15 26 61 -3 88 -27 26
-37 28 -37 8z"/>
<path d="M5194 2568 c3 -13 5 -29 5 -36 1 -7 22 -23 48 -34 l47 -21 -38 -33
c-31 -27 -37 -38 -34 -66 2 -27 7 -33 28 -34 14 -1 45 -7 70 -15 56 -16 52
-15 70 -22 8 -3 35 -11 60 -19 l45 -13 30 40 c45 59 48 65 35 80 -8 10 -6 17
11 28 18 13 20 21 14 56 -6 39 -26 54 -40 31 -9 -15 -45 -12 -111 9 -92 30
-229 71 -237 71 -4 0 -5 -10 -3 -22z m191 -111 c6 -2 30 -10 55 -17 66 -20 75
-29 51 -51 -25 -24 -28 -24 -115 2 -87 26 -95 32 -71 60 18 19 32 20 80 6z"/>
<path d="M823 2337 c-49 -18 -53 -22 -53 -51 0 -22 8 -39 25 -54 33 -29 32
-48 -5 -67 -48 -25 -60 -20 -59 23 2 55 2 56 -32 81 l-31 23 5 -68 c4 -51 10
-71 24 -81 10 -7 23 -17 30 -23 34 -29 62 -33 108 -16 25 10 45 21 46 24 0 4
2 17 5 29 3 16 -5 29 -26 45 -17 12 -30 28 -30 35 0 16 39 42 70 45 22 3 25
-1 26 -36 1 -31 8 -45 30 -62 15 -13 29 -22 31 -20 3 2 6 93 4 113 0 6 -16 20
-34 31 -19 11 -45 26 -58 34 -22 13 -29 13 -76 -5z"/>
<path d="M5191 2246 c-27 -27 -42 -50 -38 -59 3 -8 -2 -22 -12 -31 -22 -20
-17 -90 6 -82 8 3 66 -15 130 -41 111 -45 115 -46 126 -28 6 11 25 35 43 53
30 30 32 34 19 59 -8 15 -12 30 -9 35 8 12 -14 37 -29 34 -7 -1 -22 -8 -34
-14 -22 -12 -23 -11 -23 20 0 18 -4 38 -8 44 -7 10 -103 54 -119 54 -5 0 -28
-20 -52 -44z m161 -83 c5 -2 4 -11 -2 -18 -7 -8 -9 -23 -5 -35 8 -25 -1 -25
-46 -2 -19 9 -51 23 -72 31 l-37 15 26 27 27 28 50 -20 c28 -11 55 -23 59 -26z
m57 -64 c-38 -33 -56 -14 -22 23 12 14 19 15 30 7 11 -10 9 -15 -8 -30z"/>
<path d="M848 2034 l-58 -36 0 -53 0 -54 59 -40 59 -40 100 52 100 52 -2 58
c-3 54 -5 61 -34 79 -36 22 -34 25 -34 -49 -1 -47 -28 -52 -86 -16 -38 23 -47
34 -46 56 0 15 0 27 0 27 -1 0 -27 -17 -58 -36z m134 -80 c8 -5 -106 -73 -124
-74 -10 0 -10 42 0 56 4 6 20 18 37 26 28 15 54 12 87 -8z"/>
<path d="M5071 2001 l-44 -37 7 -64 c4 -36 8 -65 9 -66 1 -1 24 -16 51 -32
l49 -31 26 20 c15 12 26 31 27 47 2 48 4 52 22 52 11 0 33 -7 51 -16 l33 -16
-42 -39 c-33 -31 -40 -43 -36 -66 2 -15 5 -31 5 -36 1 -4 23 15 51 42 48 48
49 50 44 97 -7 69 -8 70 -54 99 -34 22 -44 24 -63 14 -30 -16 -37 -29 -32 -61
8 -42 -26 -55 -70 -28 -19 12 -35 25 -35 29 0 4 14 17 30 29 23 18 30 30 30
57 0 18 -3 36 -8 39 -4 2 -27 -13 -51 -33z"/>
<path d="M1170 1817 c0 -17 -18 -32 -73 -65 -39 -23 -82 -49 -93 -58 -21 -14
-22 -13 -28 19 -5 26 -15 37 -42 51 l-36 17 7 -38 c4 -21 8 -42 9 -48 3 -21
18 -35 35 -35 13 0 19 -8 19 -25 -1 -14 2 -28 4 -30 9 -10 69 -17 67 -9 -4 25
8 37 86 85 47 29 88 56 91 60 2 5 11 6 19 2 11 -4 15 3 15 29 0 26 -6 37 -22
45 -49 23 -58 23 -58 0z"/>
<path d="M4943 1773 c-60 -32 -54 -25 -60 -67 l-5 -36 47 20 c70 30 74 22 66
-102 -1 -9 -10 -20 -21 -23 -29 -9 -25 -20 18 -46 20 -13 39 -27 40 -31 6 -13
29 -9 76 14 47 23 49 27 61 118 l6 45 -90 67 -89 66 -49 -25z m145 -155 c2 -4
9 -8 17 -8 7 0 18 -7 25 -15 10 -12 7 -15 -17 -22 -15 -4 -35 -6 -43 -4 -30 6
-56 41 -58 77 l-3 37 38 -29 c21 -15 40 -32 41 -36z"/>
<path d="M1244 1669 c-10 -4 -29 -16 -41 -28 -12 -12 -25 -21 -28 -21 -3 0
-16 -10 -29 -22 -38 -37 -66 -58 -76 -58 -15 0 -12 -19 9 -75 10 -27 26 -51
35 -53 23 -5 20 -15 -14 -40 -16 -13 -30 -26 -30 -31 0 -4 20 -12 44 -18 41
-9 45 -8 78 21 19 17 45 40 59 51 13 11 54 45 89 75 36 30 66 55 68 56 1 1 -5
25 -15 53 -17 50 -21 54 -74 75 -34 14 -63 20 -75 15z m76 -75 c6 -14 10 -27
10 -29 0 -3 -37 -34 -82 -69 -82 -65 -97 -68 -98 -22 0 19 4 23 81 86 24 19
48 40 53 47 17 19 26 15 36 -13z"/>
<path d="M4763 1564 c-55 -27 -57 -31 -67 -124 -4 -42 -2 -47 35 -79 33 -28
44 -32 72 -27 26 5 33 11 35 33 2 29 18 53 36 53 13 0 66 -47 66 -58 -1 -4
-20 -16 -43 -27 -33 -16 -43 -27 -48 -52 -4 -18 -4 -35 -1 -37 2 -3 24 8 48
24 23 17 47 30 53 30 6 0 11 6 12 13 0 6 2 19 4 27 17 83 16 86 -27 128 -40
40 -42 41 -69 27 -20 -11 -29 -24 -31 -47 -4 -46 -40 -50 -80 -9 l-29 30 40
21 c23 11 41 26 42 33 0 6 3 24 5 40 3 15 3 27 2 26 -2 0 -26 -12 -55 -25z"/>
<path d="M1424 1486 c1 -20 -19 -46 -81 -110 -46 -46 -83 -90 -83 -98 0 -12
-8 -14 -39 -8 l-39 7 14 -41 c17 -46 28 -56 66 -56 27 0 28 2 16 50 -2 11 5
14 30 12 26 -3 34 1 41 20 6 13 46 59 91 102 64 63 79 84 74 100 -9 29 -14 34
-55 41 -34 6 -36 5 -35 -19z"/>
<path d="M1535 1399 c-3 -4 -3 -13 0 -21 3 -8 -24 -45 -64 -88 -38 -41 -91
-100 -119 -130 -28 -30 -48 -58 -43 -63 4 -4 25 -8 46 -9 27 -1 42 4 52 18 7
10 33 39 56 65 23 25 64 68 90 97 26 28 55 55 63 60 27 15 -7 68 -46 74 -17 3
-33 1 -35 -3z"/>
<path d="M1692 1355 c-45 -20 -70 -52 -79 -100 -10 -51 -6 -90 10 -121 12 -23
13 -21 13 28 -1 64 32 124 78 143 43 18 69 1 127 -85 l47 -69 -41 -3 c-40 -3
-43 -6 -114 -108 -61 -87 -72 -111 -70 -140 l2 -35 -59 2 c-64 1 -80 13 -108
76 -14 29 -23 31 -80 18 -22 -5 -40 -5 -46 1 -6 6 -12 6 -16 0 -3 -6 10 -19
29 -31 37 -22 75 -74 75 -105 0 -19 2 -19 65 -3 100 26 148 27 190 5 17 -10
18 -9 8 4 -10 12 -5 27 32 83 25 37 45 72 45 76 0 5 3 9 8 9 4 0 27 31 52 69
l45 70 45 -1 c25 -1 56 5 69 12 l25 13 -31 16 c-16 9 -54 45 -84 81 -78 93
-163 127 -237 95z"/>
<path d="M4409 1352 c-33 -17 -51 -50 -63 -117 -7 -36 -16 -47 -29 -37 -15 12
-90 8 -144 -7 -24 -6 -43 -13 -43 -15 0 -1 18 -3 40 -4 75 -3 126 -41 202
-147 29 -40 38 -65 47 -124 5 -41 14 -78 20 -84 6 -6 8 0 6 19 -8 72 37 87
185 62 58 -10 108 -18 111 -18 10 0 49 142 49 177 0 17 -4 34 -9 38 -6 3 -8
-4 -5 -17 7 -38 -6 -75 -29 -85 -23 -11 -134 -10 -144 1 -3 3 5 20 19 38 77
101 82 204 15 277 -49 52 -165 74 -228 43z m158 -116 c56 -29 83 -113 55 -176
-22 -48 -38 -60 -93 -66 -30 -3 -61 -10 -71 -15 -28 -15 -33 -11 -35 34 -4 76
-14 107 -44 142 -37 42 -32 70 14 91 40 18 130 12 174 -10z"/>
<path d="M4118 1082 c-21 -3 -33 -15 -57 -62 -31 -59 -39 -90 -23 -90 5 0 16
-17 24 -38 13 -33 19 -38 48 -37 22 0 36 6 44 20 26 48 55 46 83 -5 l21 -40
-34 -1 c-19 -1 -38 -3 -44 -4 -5 -1 -14 -3 -18 -4 -7 -1 -42 -54 -42 -64 0 -4
133 21 135 26 0 1 12 24 27 51 l26 49 -20 48 c-11 26 -28 49 -37 51 -35 8 -60
-5 -70 -34 -15 -41 -48 -35 -74 15 -11 21 -18 40 -16 42 4 4 51 13 76 14 11 1
43 50 43 65 0 5 -41 4 -92 -2z"/>
<path d="M2215 983 c-74 -17 -95 -25 -95 -39 0 -8 -4 -22 -10 -32 -12 -22 -60
-143 -60 -153 0 -9 73 -85 80 -83 8 3 104 16 117 17 7 0 30 47 52 104 l40 103
-45 43 c-51 47 -51 46 -79 40z m2 -163 c-19 -46 -39 -86 -45 -88 -7 -2 -17 7
-23 21 -9 20 -5 39 23 110 l33 86 23 -22 23 -23 -34 -84z"/>
<path d="M3806 915 c-35 -54 -36 -56 -22 -90 8 -19 13 -35 10 -35 -3 0 0 -8 5
-19 10 -17 80 -36 81 -21 1 14 30 41 48 45 15 3 23 -4 30 -23 6 -15 13 -35 17
-44 6 -16 1 -18 -42 -18 -39 0 -54 -5 -71 -23 -12 -13 -22 -26 -22 -30 0 -8
86 -9 115 -1 11 3 34 27 52 54 l32 48 -16 50 c-14 43 -20 51 -46 55 -28 4 -67
-22 -67 -45 0 -4 -9 -8 -20 -8 -15 0 -26 12 -39 43 -21 47 -13 59 32 51 20 -3
34 2 52 20 38 38 31 46 -34 46 l-58 0 -37 -55z"/>
<path d="M2400 919 c-33 -13 -33 -14 -19 -36 10 -16 6 -40 -21 -131 -18 -61
-30 -118 -27 -127 4 -8 2 -15 -3 -15 -5 0 -21 -5 -35 -10 l-27 -10 38 -35 c25
-23 41 -32 48 -25 5 5 18 10 28 10 23 0 23 12 -1 41 l-19 24 31 11 c27 9 32
15 29 40 -1 16 12 76 31 134 30 94 32 106 18 122 -17 20 -34 22 -71 7z"/>
<path d="M2606 872 l-37 -15 51 -34 c28 -19 48 -37 46 -42 -3 -4 -7 -20 -10
-36 -12 -66 -29 -141 -33 -147 -2 -4 -16 3 -30 16 -25 23 -26 27 -15 78 5 29
9 55 7 57 -2 2 -21 -5 -41 -15 -30 -15 -40 -28 -51 -64 -19 -65 -17 -69 32
-91 24 -11 47 -24 50 -29 6 -9 101 25 123 45 7 6 14 26 17 44 2 18 6 44 10 59
3 15 7 36 10 47 2 11 7 34 10 51 7 30 4 33 -48 61 -52 29 -56 29 -91 15z"/>
<path d="M3539 837 l-36 -42 23 -104 c24 -108 27 -113 47 -117 7 -2 25 -6 41
-9 16 -3 32 -8 36 -10 4 -2 30 17 58 43 36 33 51 53 48 67 -24 126 -42 187
-55 194 -9 5 -41 11 -71 14 -55 6 -55 5 -91 -36z m116 -105 c23 -108 23 -107
0 -104 -29 5 -43 22 -50 59 -3 18 -9 42 -14 55 -4 13 -7 31 -6 41 2 9 -1 17
-6 17 -4 0 -6 6 -3 14 4 11 12 12 34 5 25 -9 30 -18 45 -87z"/>
<path d="M3298 831 l-32 -28 56 -17 c47 -13 56 -20 55 -38 0 -13 4 -59 8 -102
7 -75 7 -79 -11 -71 -10 4 -25 8 -31 8 -7 0 -15 14 -18 31 -12 64 -13 71 -14
84 -1 9 -13 4 -35 -15 -34 -27 -35 -29 -30 -88 3 -33 7 -61 8 -62 1 -1 19 -4
41 -7 22 -2 47 -7 57 -11 9 -4 24 0 35 9 88 72 84 66 79 110 -15 121 -18 153
-18 168 0 9 -6 22 -14 29 -8 6 -14 9 -14 6 0 -3 -20 1 -45 9 -45 13 -46 13
-77 -15z"/>
<path d="M2825 836 c-45 -24 -46 -26 -30 -42 8 -9 12 -20 9 -25 -7 -12 -18
-171 -15 -215 1 -7 21 -17 46 -23 24 -6 50 -17 57 -24 10 -11 20 -8 55 15 49
34 53 49 19 75 l-24 19 39 17 c24 10 39 24 39 34 0 10 3 41 6 68 l5 50 -58 28
c-34 17 -65 26 -75 22 -9 -4 -25 -2 -35 3 -11 5 -25 5 -38 -2z m120 -130 c-2
-28 -4 -57 -4 -65 -1 -8 -7 -11 -17 -7 -10 4 -25 -1 -37 -11 -19 -18 -19 -17
-14 57 4 41 6 83 7 92 0 17 2 17 34 1 34 -16 34 -18 31 -67z m-31 -112 c14 -6
24 -44 11 -44 -12 0 -55 33 -55 41 0 10 21 12 44 3z"/>
<path d="M3083 817 c-31 -22 -31 -23 -11 -39 17 -14 20 -30 22 -131 1 -64 5
-119 9 -123 14 -14 7 -31 -18 -44 -34 -18 -32 -24 14 -45 39 -17 40 -17 71 5
l32 23 -32 20 -32 20 28 22 c24 19 26 25 16 38 -7 8 -12 19 -11 23 1 5 1 59 0
120 -1 109 -2 111 -26 122 -31 14 -23 16 -62 -11z"/>
<path d="M2107 650 c-20 -4 -40 -10 -43 -13 -10 -10 5 -57 20 -63 23 -9 66 14
66 35 0 11 8 25 18 30 9 6 15 11 12 11 -24 6 -40 6 -73 0z"/>
<path d="M3017 333 c-10 -18 10 -239 25 -278 33 -84 72 -63 93 50 3 17 8 72
11 123 6 85 5 92 -12 93 -11 1 -35 2 -54 3 -20 1 -41 5 -47 9 -6 4 -14 4 -16
0z"/>
</g>
</svg>
